<svg width="200" height="305" viewBox="0 0 200 305" fill="none" xmlns="http://www.w3.org/2000/svg">
<rect width="200" height="305" rx="4" fill="white"/>
<path d="M57.43 158C57.142 158 56.92 157.922 56.764 157.766C56.608 157.61 56.53 157.388 56.53 157.1V146.21C56.53 145.922 56.608 145.7 56.764 145.544C56.92 145.388 57.142 145.31 57.43 145.31H61.696C62.572 145.31 63.316 145.442 63.928 145.706C64.552 145.97 65.026 146.348 65.35 146.84C65.674 147.332 65.836 147.926 65.836 148.622C65.836 149.402 65.608 150.056 65.152 150.584C64.696 151.112 64.072 151.466 63.28 151.646V151.376C64.168 151.484 64.864 151.814 65.368 152.366C65.884 152.906 66.142 153.614 66.142 154.49C66.142 155.618 65.77 156.488 65.026 157.1C64.294 157.7 63.256 158 61.912 158H57.43ZM58.15 156.686H61.732C62.668 156.686 63.364 156.506 63.82 156.146C64.276 155.774 64.504 155.21 64.504 154.454C64.504 153.698 64.276 153.14 63.82 152.78C63.364 152.42 62.668 152.24 61.732 152.24H58.15V156.686ZM58.15 150.908H61.444C62.356 150.908 63.04 150.728 63.496 150.368C63.964 149.996 64.198 149.462 64.198 148.766C64.198 148.07 63.964 147.542 63.496 147.182C63.04 146.81 62.356 146.624 61.444 146.624H58.15V150.908ZM72.2568 158.162C71.3928 158.162 70.6428 157.976 70.0068 157.604C69.3708 157.232 68.8788 156.704 68.5308 156.02C68.1828 155.336 68.0088 154.532 68.0088 153.608C68.0088 152.912 68.1048 152.288 68.2968 151.736C68.5008 151.172 68.7888 150.692 69.1608 150.296C69.5328 149.9 69.9768 149.6 70.4928 149.396C71.0208 149.18 71.6088 149.072 72.2568 149.072C73.1208 149.072 73.8708 149.258 74.5068 149.63C75.1428 150.002 75.6348 150.53 75.9828 151.214C76.3308 151.886 76.5048 152.684 76.5048 153.608C76.5048 154.304 76.4028 154.934 76.1988 155.498C76.0068 156.062 75.7248 156.542 75.3528 156.938C74.9808 157.334 74.5308 157.64 74.0028 157.856C73.4868 158.06 72.9048 158.162 72.2568 158.162ZM72.2568 156.866C72.7848 156.866 73.2408 156.74 73.6248 156.488C74.0208 156.236 74.3208 155.87 74.5248 155.39C74.7408 154.91 74.8488 154.316 74.8488 153.608C74.8488 152.552 74.6148 151.748 74.1468 151.196C73.6788 150.644 73.0488 150.368 72.2568 150.368C71.7408 150.368 71.2848 150.494 70.8888 150.746C70.5048 150.986 70.2048 151.346 69.9888 151.826C69.7728 152.306 69.6648 152.9 69.6648 153.608C69.6648 154.664 69.8988 155.474 70.3668 156.038C70.8468 156.59 71.4768 156.866 72.2568 156.866ZM82.3291 158.162C81.4651 158.162 80.7151 157.976 80.0791 157.604C79.4431 157.232 78.9511 156.704 78.6031 156.02C78.2551 155.336 78.0811 154.532 78.0811 153.608C78.0811 152.912 78.1771 152.288 78.3691 151.736C78.5731 151.172 78.8611 150.692 79.2331 150.296C79.6051 149.9 80.0491 149.6 80.5651 149.396C81.0931 149.18 81.6811 149.072 82.3291 149.072C83.1931 149.072 83.9431 149.258 84.5791 149.63C85.2151 150.002 85.7071 150.53 86.0551 151.214C86.4031 151.886 86.5771 152.684 86.5771 153.608C86.5771 154.304 86.4751 154.934 86.2711 155.498C86.0791 156.062 85.7971 156.542 85.4251 156.938C85.0531 157.334 84.6031 157.64 84.0751 157.856C83.5591 158.06 82.9771 158.162 82.3291 158.162ZM82.3291 156.866C82.8571 156.866 83.3131 156.74 83.6971 156.488C84.0931 156.236 84.3931 155.87 84.5971 155.39C84.8131 154.91 84.9211 154.316 84.9211 153.608C84.9211 152.552 84.6871 151.748 84.2191 151.196C83.7511 150.644 83.1211 150.368 82.3291 150.368C81.8131 150.368 81.3571 150.494 80.9611 150.746C80.5771 150.986 80.2771 151.346 80.0611 151.826C79.8451 152.306 79.7371 152.9 79.7371 153.608C79.7371 154.664 79.9711 155.474 80.4391 156.038C80.9191 156.59 81.5491 156.866 82.3291 156.866ZM89.4853 158.126C89.2333 158.126 89.0353 158.054 88.8913 157.91C88.7473 157.766 88.6753 157.556 88.6753 157.28V146.012C88.6753 145.736 88.7473 145.532 88.8913 145.4C89.0353 145.256 89.2333 145.184 89.4853 145.184C89.7493 145.184 89.9533 145.256 90.0973 145.4C90.2413 145.532 90.3133 145.736 90.3133 146.012V153.104H90.3493L93.8773 149.666C94.0573 149.486 94.2193 149.348 94.3633 149.252C94.5073 149.156 94.6933 149.108 94.9213 149.108C95.1493 149.108 95.3233 149.168 95.4433 149.288C95.5633 149.396 95.6233 149.54 95.6233 149.72C95.6233 149.888 95.5393 150.056 95.3713 150.224L91.6273 153.86V153.05L95.7133 156.992C95.8813 157.16 95.9593 157.334 95.9473 157.514C95.9473 157.694 95.8813 157.844 95.7493 157.964C95.6293 158.072 95.4673 158.126 95.2633 158.126C95.0233 158.126 94.8253 158.078 94.6693 157.982C94.5253 157.886 94.3573 157.736 94.1653 157.532L90.3493 153.932H90.3133V157.28C90.3133 157.844 90.0373 158.126 89.4853 158.126ZM106.307 158.162C105.419 158.162 104.651 157.976 104.003 157.604C103.355 157.22 102.857 156.686 102.509 156.002C102.161 155.306 101.987 154.49 101.987 153.554C101.987 152.858 102.083 152.234 102.275 151.682C102.479 151.13 102.767 150.662 103.139 150.278C103.511 149.882 103.961 149.582 104.489 149.378C105.029 149.174 105.635 149.072 106.307 149.072C106.727 149.072 107.171 149.138 107.639 149.27C108.107 149.402 108.539 149.618 108.935 149.918C109.067 150.014 109.151 150.128 109.187 150.26C109.223 150.38 109.223 150.506 109.187 150.638C109.163 150.77 109.103 150.884 109.007 150.98C108.923 151.064 108.809 151.112 108.665 151.124C108.533 151.136 108.389 151.094 108.233 150.998C107.945 150.782 107.639 150.626 107.315 150.53C107.003 150.434 106.703 150.386 106.415 150.386C105.971 150.386 105.575 150.458 105.227 150.602C104.891 150.746 104.603 150.956 104.363 151.232C104.135 151.496 103.961 151.826 103.841 152.222C103.721 152.606 103.661 153.056 103.661 153.572C103.661 154.592 103.901 155.396 104.381 155.984C104.861 156.56 105.539 156.848 106.415 156.848C106.703 156.848 107.003 156.806 107.315 156.722C107.627 156.626 107.933 156.47 108.233 156.254C108.389 156.158 108.533 156.122 108.665 156.146C108.797 156.158 108.905 156.212 108.989 156.308C109.085 156.392 109.145 156.5 109.169 156.632C109.193 156.752 109.181 156.878 109.133 157.01C109.097 157.142 109.013 157.25 108.881 157.334C108.497 157.622 108.077 157.832 107.621 157.964C107.165 158.096 106.727 158.162 106.307 158.162ZM114.427 158.162C113.563 158.162 112.813 157.976 112.177 157.604C111.541 157.232 111.049 156.704 110.701 156.02C110.353 155.336 110.179 154.532 110.179 153.608C110.179 152.912 110.275 152.288 110.467 151.736C110.671 151.172 110.959 150.692 111.331 150.296C111.703 149.9 112.147 149.6 112.663 149.396C113.191 149.18 113.779 149.072 114.427 149.072C115.291 149.072 116.041 149.258 116.677 149.63C117.313 150.002 117.805 150.53 118.153 151.214C118.501 151.886 118.675 152.684 118.675 153.608C118.675 154.304 118.573 154.934 118.369 155.498C118.177 156.062 117.895 156.542 117.523 156.938C117.151 157.334 116.701 157.64 116.173 157.856C115.657 158.06 115.075 158.162 114.427 158.162ZM114.427 156.866C114.955 156.866 115.411 156.74 115.795 156.488C116.191 156.236 116.491 155.87 116.695 155.39C116.911 154.91 117.019 154.316 117.019 153.608C117.019 152.552 116.785 151.748 116.317 151.196C115.849 150.644 115.219 150.368 114.427 150.368C113.911 150.368 113.455 150.494 113.059 150.746C112.675 150.986 112.375 151.346 112.159 151.826C111.943 152.306 111.835 152.9 111.835 153.608C111.835 154.664 112.069 155.474 112.537 156.038C113.017 156.59 113.647 156.866 114.427 156.866ZM123.962 158.126C123.734 158.126 123.536 158.066 123.368 157.946C123.2 157.826 123.056 157.634 122.936 157.37L119.876 150.242C119.792 150.038 119.762 149.852 119.786 149.684C119.81 149.516 119.888 149.378 120.02 149.27C120.164 149.162 120.356 149.108 120.596 149.108C120.8 149.108 120.962 149.156 121.082 149.252C121.202 149.348 121.316 149.516 121.424 149.756L124.25 156.722H123.746L126.644 149.756C126.74 149.516 126.848 149.348 126.968 149.252C127.1 149.156 127.28 149.108 127.508 149.108C127.712 149.108 127.868 149.162 127.976 149.27C128.096 149.378 128.168 149.516 128.192 149.684C128.216 149.852 128.18 150.032 128.084 150.224L125.006 157.37C124.898 157.634 124.754 157.826 124.574 157.946C124.406 158.066 124.202 158.126 123.962 158.126ZM133.858 158.162C132.91 158.162 132.094 157.982 131.41 157.622C130.738 157.25 130.216 156.728 129.844 156.056C129.472 155.372 129.286 154.568 129.286 153.644C129.286 152.732 129.466 151.934 129.826 151.25C130.198 150.566 130.702 150.032 131.338 149.648C131.986 149.264 132.724 149.072 133.552 149.072C134.14 149.072 134.668 149.174 135.136 149.378C135.616 149.57 136.024 149.852 136.36 150.224C136.696 150.596 136.948 151.052 137.116 151.592C137.296 152.12 137.386 152.72 137.386 153.392C137.386 153.584 137.326 153.734 137.206 153.842C137.098 153.938 136.936 153.986 136.72 153.986H130.564V152.942H136.306L136 153.194C136 152.57 135.904 152.042 135.712 151.61C135.532 151.166 135.262 150.83 134.902 150.602C134.554 150.374 134.116 150.26 133.588 150.26C133.012 150.26 132.52 150.398 132.112 150.674C131.704 150.938 131.392 151.316 131.176 151.808C130.96 152.288 130.852 152.846 130.852 153.482V153.59C130.852 154.67 131.11 155.486 131.626 156.038C132.142 156.59 132.886 156.866 133.858 156.866C134.242 156.866 134.632 156.818 135.028 156.722C135.436 156.626 135.826 156.452 136.198 156.2C136.378 156.092 136.54 156.044 136.684 156.056C136.84 156.056 136.966 156.104 137.062 156.2C137.158 156.284 137.218 156.392 137.242 156.524C137.266 156.644 137.248 156.776 137.188 156.92C137.128 157.064 137.014 157.19 136.846 157.298C136.45 157.574 135.976 157.79 135.424 157.946C134.884 158.09 134.362 158.162 133.858 158.162ZM140.269 158.126C139.993 158.126 139.783 158.054 139.639 157.91C139.495 157.766 139.423 157.556 139.423 157.28V149.936C139.423 149.66 139.495 149.456 139.639 149.324C139.783 149.18 139.981 149.108 140.233 149.108C140.485 149.108 140.677 149.18 140.809 149.324C140.953 149.456 141.025 149.66 141.025 149.936V151.322H140.845C141.037 150.602 141.397 150.056 141.925 149.684C142.453 149.312 143.119 149.102 143.923 149.054C144.115 149.042 144.271 149.09 144.391 149.198C144.511 149.294 144.577 149.462 144.589 149.702C144.601 149.93 144.547 150.116 144.427 150.26C144.307 150.392 144.121 150.47 143.869 150.494L143.545 150.512C142.753 150.596 142.141 150.854 141.709 151.286C141.289 151.718 141.079 152.312 141.079 153.068V157.28C141.079 157.556 141.007 157.766 140.863 157.91C140.731 158.054 140.533 158.126 140.269 158.126Z" fill="#27272A"/>
</svg>
